# xmcd
#
# Track frame offsets: 
#        180
#        6188
#        14524
#        17913
#        23700
#        26116
#        34711
#        42054
#        46240
#        53465
#        68358
#        81176
#        85326
#        98092
#        109315
#        131839
#        199258
#        210585
#        235580
#        277901
#
# Disc length: 4166 seconds
#
# Revision: 0
# Processed by: cddbd v1.5.2PL0 Copyright (c) Steve Scherf et al.
# Submitted via: ExactAudioCopy v1.0b6
#
DISCID=fb104414
DTITLE=William Steinberg - ELGAR: Enigma Variations • STRAUSS: Don Jua
DTITLE=n, Op. 20 and Suite from Der RosenKavalier (1957)
DYEAR=1957
DGENRE=Classical
TTITLE0=William Steinberg: Pittsburgh Symphony Orchestra - ELGAR: Enig
TTITLE0=ma Variations - Theme
TTITLE1=William Steinberg: Pittsburgh Symphony Orchestra - ELGAR: Enig
TTITLE1=ma Variations - I. C.A.E.
TTITLE2=William Steinberg: Pittsburgh Symphony Orchestra - ELGAR: Enig
TTITLE2=ma Variations - II. H.D.S.-P.
TTITLE3=William Steinberg: Pittsburgh Symphony Orchestra - ELGAR: Enig
TTITLE3=ma Variations - III. R.B.T.
TTITLE4=William Steinberg: Pittsburgh Symphony Orchestra - ELGAR: Enig
TTITLE4=ma Variations - IV. W.M.B.
TTITLE5=William Steinberg: Pittsburgh Symphony Orchestra - ELGAR: Enig
TTITLE5=ma Variations - V. R.P.A.
TTITLE6=William Steinberg: Pittsburgh Symphony Orchestra - ELGAR: Enig
TTITLE6=ma Variations - VI. Ysobel
TTITLE7=William Steinberg: Pittsburgh Symphony Orchestra - ELGAR: Enig
TTITLE7=ma Variations - VII. Troyte
TTITLE8=William Steinberg: Pittsburgh Symphony Orchestra - ELGAR: Enig
TTITLE8=ma Variations - VIII. W.N.
TTITLE9=William Steinberg: Pittsburgh Symphony Orchestra - ELGAR: Enig
TTITLE9=ma Variations - IX. Nimrod
TTITLE10=William Steinberg: Pittsburgh Symphony Orchestra - ELGAR: Eni
TTITLE10=gma Variations - X. Intermezzo: Dorabella
TTITLE11=William Steinberg: Pittsburgh Symphony Orchestra - ELGAR: Eni
TTITLE11=gma Variations - XI. G.R.S.
TTITLE12=William Steinberg: Pittsburgh Symphony Orchestra - ELGAR: Eni
TTITLE12=gma Variations - XII. B.G.N.
TTITLE13=William Steinberg: Pittsburgh Symphony Orchestra - ELGAR: Eni
TTITLE13=gma Variations - XIII. Romanza:
TTITLE14=William Steinberg: Pittsburgh Symphony Orchestra - ELGAR: Eni
TTITLE14=gma Variations - XIV. Finale: E.D.U.
TTITLE15=STRAUSS (R): Don Juan, Op. 20
TTITLE16=STRAUSS (R): Suite from Der Rosenkavalier - Introduction to A
TTITLE16=ct I
TTITLE17=STRAUSS (R): Suite from Der Rosenkavalier - Arrival of the Ro
TTITLE17=se-Cavalier and Presentation of the Rose (from Act II)
TTITLE18=STRAUSS (R): Suite from Der Rosenkavalier - Introduction to A
TTITLE18=ct III and Pantomime and Waltzes from Act II
TTITLE19=STRAUSS (R): Suite from Der Rosenkavalier - Terzett and Duet;
TTITLE19=Denouement and Grand Waltz (from Act III) - Coda
EXTD=ID3G:  32 YEAR: 1995
EXTT0=
EXTT1=Caroline Alice Elgar
EXTT2=Hew David Steuart-Powell
EXTT3=Richard Baxter Townshend
EXTT4=William Meath Baxter
EXTT5=Richard Penrose Arnold
EXTT6=Isabel Fitton
EXTT7=Troyte Griffith
EXTT8=Winifred Norbury
EXTT9=A.J. Jaeger
EXTT10=Dora Penny
EXTT11=George Robertson Sinclair
EXTT12=Basil G. Nevinson
EXTT13=Lady Mary Lygon
EXTT14=the composer
EXTT15=Tone Poem after Lenau
EXTT16=
EXTT17=
EXTT18=
EXTT19=
PLAYORDER=
